# xmcd CD database file
#
# Track frame offsets:
#	150
#	11525
#	27816
#	40145
#	59475
#	72689
#	85847
#	102247
#	119331
#	134527
#	165656
#	179089
#	208224
#
# Disc length: 2783 seconds
#
# Revision: 1
# Processed by: cddbd v1.5.2PL0 Copyright (c) Steve Scherf et al.
# Submitted via: CDex 1.79
#
DISCID=be0add0d
DTITLE=Pati Blues - Pati Blues 2003
DYEAR=2003
DGENRE=Folk/Rock
TTITLE0=you are a treasure lost in yourself (instrumental)
TTITLE1=the girl in the fog
TTITLE2=love you now
TTITLE3=time'll come
TTITLE4=please don't cry my baby
TTITLE5=walking ghost
TTITLE6=a ballad from my yard
TTITLE7=you are a treasure lost in yourself
TTITLE8=fly's life
TTITLE9=the end of days
TTITLE10=he's free today
TTITLE11=please don't cry my baby
TTITLE12=bonus track
EXTD=Polish Folk/Rock/Blues YEAR: 2003
EXTT0=
EXTT1=
EXTT2=
EXTT3=
EXTT4=
EXTT5=
EXTT6=
EXTT7=
EXTT8=
EXTT9=
EXTT10=
EXTT11=
EXTT12=
PLAYORDER=
